<svg width="168" height="178" viewBox="0 0 168 178" fill="none" xmlns="http://www.w3.org/2000/svg">
<path d="M149.333 101.017C149.124 101.14 147.841 101.772 147.485 101.914C144.87 103.116 142.522 102.918 139.905 101.332C138.025 100.193 136.28 97.6876 135.597 96.8077C135.058 96.1135 134.406 95.2043 133.469 94.342C131.731 92.7318 129.38 91.6712 125.311 91.7488C124.983 91.755 124.66 91.6779 124.371 91.5202C120.26 89.2806 113.177 86.5498 106.408 86.9011C105.066 86.9943 104.874 85.9893 104.431 84.8644C103.2 81.4755 102.303 79.9062 101.467 78.678C100.404 77.1148 99.9363 77.1027 99.0545 76.8475C98.0727 76.5635 97.0085 76.4562 96.3557 75.2838C96.2758 75.14 95.9554 74.5197 96.3185 74.0833C97.2173 73.004 99.7099 71.5182 95.9655 69.3404C93.6823 68.0125 94.699 67.1586 95.0787 66.9571C95.604 66.678 96.51 66.4578 97.5934 66.68C98.677 66.9025 99.9377 67.5678 101.173 69.0583C102.394 70.532 106.517 77.4082 109.022 82.6288C109.056 82.6993 109.11 83.0751 109.571 83.121C110.27 83.191 111.467 83.193 111.712 83.2145C112.098 83.2484 112.103 82.9277 112.065 82.7974C108.513 70.6563 104.428 55.5459 97.3378 45.0325C97.1938 44.7306 97.3171 44.4149 97.7643 44.4604C104.109 45.1296 105.95 54.4314 109.668 60.5415C114.445 68.3962 117.246 65.3181 117.699 60.0201C118.015 56.3165 117.067 51.6029 114.562 48.9601C113.966 48.2133 112.912 47.2674 112.471 46.7082C112.312 46.5072 112.289 46.169 112.71 46.0609C112.884 46.0162 113.132 45.9981 113.471 46.011C116.403 46.2431 120.477 48.6879 122.188 51.4098C125.701 56.9958 125.439 59.9981 124.957 61.9778C124.134 65.3643 122.598 67.3109 124.502 72.6655C128.272 83.2647 127.286 81.0535 125.141 87.7204C124.956 88.2272 125.258 88.6049 125.683 88.5646C130.619 88.0981 132.127 89.2494 133.193 89.8378C133.301 89.8974 133.394 89.9886 133.469 89.9713C133.659 89.9026 133.726 89.6566 133.759 89.3251C134.164 86.4647 133.586 85.2565 132.952 83.5712C132.581 82.5813 132.16 81.4654 132.027 80.3783C131.812 78.9828 132.057 78.1976 132.465 77.1536C133.16 75.3738 133.574 73.9948 133.009 71.3164C131.761 65.6642 127.264 56.3572 124.391 50.9967C124.154 50.5342 122.186 46.7062 121.877 46.146C121.666 45.7633 121.756 45.297 121.913 44.9346C122.043 44.6337 122.259 44.0307 122.259 44.0307C122.945 42.2295 123.309 40.8539 123.515 39.2819C124.181 34.2128 122.891 30.6068 119.332 27.59C116.028 24.7902 110.145 23.5507 102.311 24.0054L100.652 24.1024C93.2736 24.5362 84.9108 25.028 78.6178 24.492C72.5254 23.9732 68.9674 22.9804 67.7393 21.4566C67.3411 20.9618 67.1868 20.414 67.255 19.7315C67.3915 18.3674 68.1934 17.0107 69.4546 16.0094C70.5456 15.1431 71.8356 14.6771 72.7488 14.8244C74.388 14.8933 76.1859 15.8438 78.2671 16.9444C80.1317 17.9307 82.2454 19.0482 84.7032 19.776C86.7814 20.3915 88.8384 20.6643 90.8141 20.5866C92.6784 20.5134 94.5046 20.1114 96.2417 19.3912C96.9761 19.0864 97.5041 18.7372 97.7333 18.5309C97.8519 18.4243 97.8963 18.2117 97.753 18.0129C97.6675 17.8934 97.5598 17.8941 97.1787 17.8939C94.5627 17.8934 92.233 17.469 90.7536 17.1118C89.1178 16.6861 88.9771 16.2774 88.9925 16.1214C89.028 15.7603 89.8903 15.4169 90.8755 15.3714C95.7029 15.148 99.3994 15.4171 101.845 15.5944C102.679 15.6551 103.338 15.703 103.813 15.7129C104.3 15.7231 104.941 15.704 104.967 15.7008C105.113 15.6863 105.155 15.5905 105.166 15.5502C105.194 15.4542 105.151 15.3402 105.097 15.2957C103.395 13.8483 97.8658 11.6637 91.5586 10.513C81.4106 8.66138 74.6124 10.1807 70.697 11.7822C69.9173 12.1009 67.9107 12.9965 66.1263 14.421C64.1597 15.9908 63.0622 17.7016 62.8642 19.5048C62.5999 21.9187 64.3001 25.0372 73.9049 26.184C84.0742 27.3986 93.5748 27.2256 101.957 27.0743C102.833 27.0582 103.692 27.0429 104.533 27.0293C109.843 26.9497 114.337 28.2664 116.264 30.48C118.485 33.0299 118.617 36.4435 118.056 38.5916C117.894 39.2107 117.564 40.1432 117.169 40.7333C116.559 41.5832 115.89 41.8421 114.661 41.5078C110.737 40.4401 103.738 38.0645 100.344 36.8848C97.3219 35.8338 94.9349 35.0037 92.9105 34.4924C86.9009 32.9752 85.0243 33.9799 80.9902 36.6064C80.0174 37.2391 79.0289 37.9328 77.8841 38.7355C76.2281 39.8969 74.3508 41.2139 71.8541 42.8194C70.3481 43.7877 68.3741 44.9069 66.2839 46.0913C64.1585 47.2963 61.9608 48.5421 59.8082 49.8709C52.9039 54.0457 51.8021 59.6433 50.5267 66.125C49.6214 70.7241 48.5954 75.9368 45.1855 81.2154C44.8118 81.7947 41.856 85.4877 41.2272 86.5359C38.8915 90.4037 37.6366 93.7415 38.1314 99.3539C38.5015 103.55 37.1078 107.202 35.7607 110.734C34.6999 113.514 33.6986 116.139 33.5333 118.951C33.4085 120.69 33.4692 122.314 33.5282 123.886C33.6262 126.493 33.6638 129.092 32.8915 131.342C32.2985 133.07 30.7944 134.771 30.211 136.443C29.4607 138.592 28.9354 141.65 28.9354 144.459C28.8881 146.825 27.1817 148.564 25.3757 150.406C23.7838 152.029 22.118 153.734 21.5121 155.941C21.4313 156.235 21.3775 156.458 21.2721 156.633C21.1148 156.895 20.8793 157.062 20.5635 157.293C19.9529 157.74 19.2145 158.327 18.4078 159.998C17.7269 161.409 17.9225 163.925 18.5454 165.147C18.6414 165.336 18.9098 165.781 19.3225 165.829C19.6021 165.863 19.8831 165.709 20.1609 165.377C20.1609 165.377 21.9248 163.274 22.6123 162.644C22.8534 162.429 23.1405 162.468 23.3046 162.595C23.4983 162.745 23.5424 162.995 23.4227 163.265C23.3528 163.422 22.2894 165.372 21.6682 167.016L21.6536 167.057C21.5691 167.29 21.4644 167.58 21.6151 167.821C21.7619 168.054 22.1072 168.182 22.7043 168.223C22.9675 168.233 23.2213 168.239 23.4668 168.239C26.7355 168.239 28.4544 167.344 29.3381 166.557C29.683 166.177 29.7516 166.013 29.8651 165.74C29.8951 165.669 29.9282 165.589 29.9738 165.487C30.6276 163.681 31.0661 161.593 31.1179 160.035C31.1179 159.375 31.2998 159.187 31.7405 158.733C33.4613 156.945 33.463 154.582 33.4649 152.297C33.4666 150.197 33.468 148.025 34.8086 146.313C38.4643 142.099 40.3639 137.173 42.2014 132.41C44.0962 127.496 46.0558 122.415 49.9452 118.177C50.9251 117.141 51.8858 116.575 52.5197 116.68C52.8293 116.729 53.0748 116.934 53.2505 117.291C54.0828 118.877 53.8327 121.01 53.5903 123.074C53.3162 125.406 53.0578 127.609 54.2575 129.049C55.0589 130.118 55.2751 131.245 54.8806 132.313C54.3684 134 52.8091 139.133 49.0915 141.404C49.0018 141.459 48.0226 142.177 47.7163 142.483C47.5562 142.643 47.4394 142.858 47.3042 143.106C46.9786 143.705 46.5737 144.45 45.2959 144.839C43.8967 145.202 42.5801 146.077 41.861 147.124C39.8947 149.985 39.9792 153.527 40.164 154.543C40.2358 154.937 40.3646 155.455 40.7306 155.968C40.9538 156.283 41.213 156.469 41.4802 156.509C41.6998 156.542 41.9191 156.476 42.1267 156.313C42.3432 156.143 42.5988 155.839 42.9223 155.453C43.4302 154.848 44.0619 154.094 44.8582 153.492C45.1133 153.299 45.3646 153.344 45.5138 153.451C45.6538 153.551 45.7178 153.711 45.6773 153.858C45.6031 154.125 45.366 154.51 45.0646 154.998C44.6827 155.618 44.2073 156.389 43.8324 157.298C43.7393 157.5 43.7275 157.687 43.7969 157.853C43.9046 158.111 44.1725 158.218 44.2529 158.245C46.619 159.022 50.1535 158.099 52.1316 156.184C53.1235 155.224 53.6059 153.951 53.6059 152.293C53.6059 151.873 53.8003 151.22 54.223 150.785C55.6164 149.556 56.1936 147.637 56.8044 145.606C56.9496 145.124 57.0998 144.625 57.2621 144.132C57.893 142.219 58.7246 140.574 60.7332 138.765C63.3398 136.255 64.5175 133.887 65.2608 132.429C66.0175 130.859 66.1831 129.983 66.7361 129.068C67.8238 127.3 71.4955 126.967 72.852 127.792C73.4146 128.134 73.5396 128.608 73.2245 129.2C73.0188 129.584 71.082 132.812 70.1707 135.019C69.7234 136.101 68.7118 136.506 68.1099 136.869C64.4734 139.058 63.8103 143.182 63.7044 144.872C63.6715 145.4 63.7279 146.103 63.9859 146.495C64.1352 146.722 64.3445 146.868 64.5744 146.907C64.8017 146.945 65.0345 146.877 65.2474 146.709C65.4598 146.542 67.4285 144.495 67.6642 144.282C67.9898 143.988 68.2759 144.038 68.4211 144.17C68.5757 144.311 68.6405 144.59 68.4382 144.898C68.1638 145.316 66.8045 147.425 66.9636 147.887C67.2336 148.668 68.0071 148.653 68.7821 148.66C75.0209 148.115 77.2265 143.541 77.2265 143.541C77.3777 143.275 77.5651 142.923 77.466 141.972C77.2877 140.256 76.8943 134.31 80.2318 130.607C81.2247 129.472 81.8069 130.239 82.0322 130.746C82.4362 131.656 83.0335 133.232 83.3731 134.023C84.0941 135.7 84.587 136.939 85.4177 138.599C86.8195 141.4 88.926 141.788 91.5331 141.451C94.9042 141.014 97.2286 141.293 99.4937 141.523C101.418 141.688 102.481 141.821 103.895 140.489C104.665 139.764 106.143 138.435 107.136 136.989C107.765 136.074 107.96 135.495 107.801 134.071C107.334 126.924 110.943 120.715 117.447 117.464C118.423 117.057 119.507 117.182 120.17 118.099C121.629 120.328 125.023 126.037 125.023 130.882C125.023 131.339 124.848 131.843 124.645 132.426C124.185 133.75 123.613 135.398 124.676 137.645C124.743 139.591 124.043 141.11 123.426 142.451C122.547 144.359 121.853 145.867 124.257 147.351C124.937 147.77 125.818 148.146 126.952 148.5C127.019 148.521 127.085 148.531 127.147 148.531C127.245 148.531 127.336 148.506 127.409 148.457C127.492 148.402 127.543 148.32 127.554 148.23C127.62 147.67 127.684 145.725 127.786 145.266C127.827 145.083 127.919 144.863 128.124 144.85C128.314 144.839 128.505 144.999 128.559 145.155C128.75 145.622 129.239 147.524 129.374 147.826C129.49 148.086 129.627 148.262 129.811 148.318C130.776 148.604 132.092 146.897 132.585 146.018C133.435 144.207 133.086 141.515 131.7 139.17C131.497 138.719 131.468 138.538 131.465 138.128C131.978 135.993 131.605 134.912 131.21 133.768C130.982 133.107 130.752 132.424 130.649 131.487C130.276 128.126 132.273 117.485 132.461 116.392C132.8 114.412 133.081 113.001 133.203 111.547C133.321 110.14 132.762 108.493 131.812 107.447C130.942 106.489 129.892 105.611 128.877 104.762C127.982 104.013 127.137 103.305 126.445 102.576C125.327 101.396 124.971 99.6743 124.981 99.1883C124.985 99.0567 125.008 98.9724 125.053 98.9309C125.088 98.898 125.145 98.8854 125.228 98.8913C126.768 99.0053 128.001 100.057 129.561 101.388C130.958 102.58 132.541 103.931 134.759 104.944C139.141 106.946 143.3 106.65 147.478 104.039C149.254 102.742 149.803 101.629 149.892 101.475C150.003 101.281 149.841 100.717 149.333 101.017ZM52.2314 83.1628C52.4856 81.0812 53.9777 78.8629 54.6322 76.2628C55.5648 73.3276 55.8228 68.1982 56.3297 64.1316C56.5824 62.1049 57.3346 61.2473 58.7554 61.0673C59.6935 60.9806 60.6713 61.8214 61.1753 64.6847C62.9232 76.4102 66.3418 78.0322 68.3275 81.1378C68.3635 81.1939 68.3979 81.2523 68.4286 81.3116C68.9371 82.2852 69.1001 83.1917 68.3023 83.8491C67.8341 84.235 66.2777 84.8115 63.6302 83.1673C60.4538 81.1944 59.9746 79.0696 54.7082 83.4105C54.7082 83.4105 54.0034 83.9744 53.3278 84.1295C52.7558 84.2607 52.1251 84.0321 52.2314 83.1628ZM79.8019 126.178C79.6126 126.299 79.3994 126.216 79.0906 126.013C76.9987 124.635 71.2008 123.549 66.3072 125.569C61.272 127.647 56.6606 130.582 56.3518 125.452C56.2908 120.906 57.2311 118.926 55.6963 116.221C55.6963 116.221 55.6308 116.129 55.5631 116.019C55.4311 115.804 55.5912 115.757 55.6414 115.752C62.7137 115.183 64.6015 112.906 65.0424 112.11C65.1391 111.935 65.0119 111.746 64.8319 111.725C63.2074 111.54 55.1069 111.29 51.8496 111.775C46.1201 112.628 42.2717 121.517 41.5275 122.357C40.6678 123.328 39.5837 122.585 39.5837 121.7C39.5837 120.217 40.4338 113.018 40.9982 110.522C41.892 106.572 43.1237 103.636 46.8653 103.043C49.4875 102.627 55.9222 101.925 55.4796 100.131C55.1122 98.6478 54.9293 97.4874 54.9257 96.8312C54.9209 95.9548 55.356 95.7795 56.2176 95.9766C56.8546 96.1222 57.7082 96.5118 58.8024 96.7771C66.8976 98.7393 71.0451 97.1764 75.8695 94.9679C76.0059 94.9054 77.8003 94.0742 77.9095 94.0114C78.779 93.5125 79.8713 94.4137 79.3877 95.4794C79.1316 96.0438 78.7846 96.3049 78.0418 97.0416C76.4486 98.6221 70.5048 103.641 74.0854 112.126C76.8773 118.741 77.6894 120.454 79.6704 124.966C79.991 125.697 80.0379 126.027 79.8019 126.178ZM94.8514 137.625C94.4566 138.257 93.8484 138.706 92.6655 138.706C91.2113 138.706 90.1822 138.258 89.5651 137.58C88.2991 136.19 88.1415 134.287 88.4515 133.041C88.6476 132.252 89.1077 131.732 89.6009 131.582C89.8174 131.508 89.934 131.525 90.0413 131.668C90.2609 132.031 91.0469 133.313 91.2281 133.58C91.4402 133.891 91.8245 134.166 92.1379 134.295C92.729 134.539 93.4836 134.75 93.8825 134.937C95.1034 135.48 95.3847 136.771 94.8514 137.625ZM118.191 114.231C118.037 114.488 117.9 114.529 117.694 114.626C110.361 117.483 104.532 125.195 105.589 134.46C105.61 134.944 105.464 135.622 105.021 136.079C105.021 136.079 103.482 137.689 102.513 138.375C102.182 138.61 101.809 138.801 100.944 138.744C99.5878 138.654 97.6776 138.53 97.6776 138.53C97.165 138.442 97.3843 137.983 97.4232 137.883C97.4597 137.787 97.4955 137.676 97.5233 137.546C97.801 136.156 97.6027 134.208 95.7058 133.479C95.4331 133.321 95.6043 133.063 95.6371 132.979C96.4515 130.913 97.47 128.357 98.2872 124.772C98.7809 122.605 98.4778 121.297 97.74 119.739C97.5768 119.394 97.363 119.075 97.1199 118.785L95.9662 117.209C95.6446 116.825 95.7288 116.42 96.1927 116.25L97.8187 115.823C98.2155 115.677 98.1773 115.057 97.7952 114.958L96.9562 114.681C96.1623 114.344 95.6787 113.691 95.3225 113.187C95.2639 113.104 95.1615 112.937 95.0638 112.756C94.8855 112.423 94.7561 112.065 94.6817 111.693L94.584 111.204C94.5732 110.955 94.193 110.952 94.0267 111.124C92.7439 112.451 92.3472 114.488 93.2892 116.107C94.6087 118.375 94.5555 118.152 95.731 119.867C96.1195 120.434 96.3519 120.895 96.4803 121.455C96.6579 122.229 96.6072 124.191 96.1039 125.591L94.7695 129.766C93.9641 131.633 93.0658 131.183 92.5558 130.833C91.8982 130.383 91.2857 129.217 90.9535 127.979C90.9535 127.979 90.036 124.494 90.0677 119.861C90.0067 119.302 89.6367 118.387 88.4566 119.188L85.3176 121.871C84.8743 122.114 84.1054 121.981 84.2611 120.929C84.2611 120.929 86.5171 110.562 88.9466 104.722C90.7707 99.9588 88.7402 97.2738 86.3196 94.3247C82.3654 89.1266 81.4795 82.1346 90.6874 85.9648C93.1596 87.1292 94.0433 85.6197 97.093 85.3475C99.2806 85.1527 99.9999 86.0645 100.187 86.4504C100.354 86.7952 100.411 87.1767 100.431 87.3765C100.44 87.4632 100.411 87.5206 100.319 87.5221C95.1569 87.8244 88.9966 92.2421 93.7543 99.1739C98.4262 105.965 111.283 108.248 117.025 101.773C117.1 101.687 117.12 101.492 117.004 101.393C116.945 101.342 116.844 101.295 116.71 101.347C115.454 101.837 114.299 102.207 113.139 102.404C110.396 102.869 104.585 102.529 101.838 99.3002C100.266 97.453 100.308 95.3197 102.965 94.9939C104.444 94.8715 105.168 95.1519 105.808 95.1642C107.465 95.1412 107.805 93.4339 107.464 92.6621C107.18 91.9226 106.52 91.0284 105.591 90.2512C104.734 89.6235 105.198 88.9666 105.755 88.9824C111.073 89.2944 116.157 90.2425 118.075 96.8179C118.148 97.0641 118.278 97.895 118.481 98.2053C118.893 98.8342 119.609 99.3064 120.398 100.015C122.328 101.748 124.06 104.839 118.191 114.231ZM125.099 110.165C126.033 108.153 127.301 109.502 127.906 111.711C128.674 114.516 128.785 119.03 128.46 121.358C128.038 124.395 126.652 123.787 125.91 122.707C124.74 121.001 123.473 118.731 122.59 117.173C122.563 117.126 122.538 117.078 122.514 117.028C122.104 116.152 122.042 115.458 122.472 114.807C122.915 114.108 124.669 111.09 125.099 110.165Z" fill="white"/>
</svg>
